# xmcd
#
# Track frame offsets: 
#        150
#        12223
#        28355
#        44246
#        63170
#        85109
#        102517
#        117450
#        131319
#        145659
#        169020
#        185538
#        202178
#        216038
#        232221
#
# Disc length: 3283 seconds
#
# Revision: 0
# Processed by: cddbd v1.5.2PL0 Copyright (c) Steve Scherf et al.
# Submitted via: ExactAudioCopyFreeDBPlugin 1.0
#
DISCID=df0cd10f
DTITLE=Arnaldo Antunes - Já É
DYEAR=1900
DGENRE=
TTITLE0=Põe fé que já é
TTITLE1=Antes
TTITLE2=Naturalmente, naturalmente
TTITLE3=Se você nadar
TTITLE4=Peraí, repara
TTITLE5=Óbitos
TTITLE6=O metereologista
TTITLE7=Dança
TTITLE8=Saudade farta
TTITLE9=As estrelas sabem
TTITLE10=As estrelas cadentes
TTITLE11=Na fissura
TTITLE12=Azul e prateado
TTITLE13=Só solidão
TTITLE14=Aqui onde está
EXTD=
EXTT0=
EXTT1=
EXTT2=
EXTT3=
EXTT4=
EXTT5=
EXTT6=
EXTT7=
EXTT8=
EXTT9=
EXTT10=
EXTT11=
EXTT12=
EXTT13=
EXTT14=
PLAYORDER=
